<?xml version="1.0" standalone="no"?><!DOCTYPE svg PUBLIC "-//W3C//DTD SVG 1.1//EN" "http://www.w3.org/Graphics/SVG/1.1/DTD/svg11.dtd"><svg t="1562961442388" class="icon" viewBox="0 0 1025 1024" version="1.1" xmlns="http://www.w3.org/2000/svg" p-id="9192" xmlns:xlink="http://www.w3.org/1999/xlink" width="200.1953125" height="200"><defs><style type="text/css"></style></defs><path d="M240.496 272c-13.504 0-25.664 5.632-34.384 14.608l-0.048-0.048L16.848 475.76C6.608 484.56 0 497.456 0 512c0 13.504 5.616 25.664 14.592 34.368L14.56 546.432l192 192 0.048-0.064C215.248 746.784 226.992 752 240 752c26.512 0 48-21.488 48-48 0-12.992-5.216-24.752-13.616-33.392l0.048-0.048-158.304-158.32 157.808-157.808-0.048-0.048c8.976-8.72 14.608-20.88 14.608-34.384C288.496 293.488 267.008 272 240.496 272zM1024.496 512c0-14.56-6.608-27.44-16.848-36.24L818.432 286.56l-0.032 0.048C809.664 277.632 797.504 272 784 272c-26.512 0-48 21.488-48 48 0 13.504 5.632 25.664 14.608 34.384l-0.048 0.048 157.808 157.808-158.32 158.32 0.048 0.048c-8.384 8.64-13.616 20.384-13.616 33.392 0 26.512 21.488 48 48 48 12.992 0 24.752-5.216 33.408-13.632l0.048 0.064 192-192-0.048-0.064C1018.88 537.664 1024.496 525.504 1024.496 512zM640 128c-20.8 0-38.496 13.232-45.168 31.712L339.2 830.784C337.136 836.128 336 841.936 336 848c0 26.512 21.488 48 48 48 20.8 0 38.496-13.232 45.168-31.712L684.8 193.216C686.88 187.872 688 182.08 688 176 688 149.488 666.512 128 640 128z" p-id="9193" fill="#ffffff"></path></svg>